<svg width="25" height="27" viewBox="0 0 25 27" fill="none" xmlns="http://www.w3.org/2000/svg">
<g clip-path="url(#clip0_1419_1915)">
<path d="M19.0242 25.9565C17.8477 25.8358 16.8167 25.5573 15.8085 25.1831C13.3037 24.2457 11.0899 22.8217 9.03818 21.1297C6.19245 18.7808 3.80403 16.041 1.99142 12.817C1.08094 11.1998 0.390814 9.49522 0.0519871 7.65766C-0.0519477 7.09642 -0.0186886 6.60169 0.324297 6.1111C1.45095 4.49596 2.67945 2.97435 4.12416 1.6336C4.30499 1.46522 4.51494 1.32179 4.71865 1.18044C4.97017 1.00375 5.23417 1.02454 5.4649 1.20954C5.64992 1.35921 5.83075 1.52759 5.96795 1.7209C7.10916 3.32774 8.15265 4.99485 9.00908 6.7742C9.06104 6.88231 9.09015 7.00079 9.14627 7.10681C9.39988 7.58698 9.26268 7.97777 8.8802 8.31452C8.33974 8.79055 7.81175 9.28528 7.24843 9.73635C6.88673 10.0253 6.85555 10.3121 7.00521 10.732C8.43121 14.7024 11.121 17.413 15.0747 18.8681C15.744 19.1154 15.7607 19.103 16.2429 18.5812C16.6378 18.153 17.008 17.7019 17.3882 17.2613C17.4673 17.1698 17.5525 17.0866 17.6335 16.9972C17.9579 16.6438 18.3174 16.5565 18.7789 16.7519C20.0449 17.2861 21.2089 18.0012 22.3688 18.7246C22.9717 19.1008 23.5682 19.4937 24.1419 19.9115C25.0295 20.558 25.0753 20.9114 24.3354 21.7221C22.9238 23.2666 21.3232 24.5887 19.5626 25.7194C19.3735 25.8399 19.151 25.9024 19.0242 25.9565Z" fill="#E11B28"/>
<path d="M13.3047 2.83392C13.3047 2.23317 13.3047 1.66985 13.3047 1.05872C16.1005 1.08782 18.5824 1.96294 20.7069 3.76518C23.4197 6.06421 24.7625 9.02635 24.8622 12.5934C24.2511 12.5934 23.6733 12.5934 23.0746 12.5934C23.0101 9.92228 22.0893 7.60661 20.1997 5.71499C18.3081 3.82338 15.9945 2.89628 13.3047 2.83392Z" fill="#E11B28"/>
<path d="M13.3145 7.27746C13.3145 6.67256 13.3145 6.10301 13.3145 5.53551C17.0957 5.39417 20.515 8.79074 20.3778 12.601C19.8082 12.601 19.2387 12.601 18.638 12.601C18.5881 11.1542 18.0955 9.88415 17.0623 8.85312C16.0355 7.82416 14.7758 7.32527 13.3145 7.27746Z" fill="#E11B28"/>
</g>
<defs>
<clipPath id="clip0_1419_1915">
<rect width="24.8633" height="26.5208" fill="white" transform="translate(0 0.22998)"/>
</clipPath>
</defs>
</svg>
