<svg width="26" height="26" viewBox="0 0 26 26" fill="none" xmlns="http://www.w3.org/2000/svg">
<path d="M0.351982 21.6722L6.38853 15.4359C6.82141 14.9885 7.36242 14.8094 7.59681 15.0381C7.83201 15.2653 8.3734 15.0866 8.80627 14.6392L8.89261 14.5496C6.19086 10.9962 6.45307 5.90858 9.69746 2.66419C13.2384 -0.87675 18.9796 -0.87675 22.5201 2.66419C26.061 6.20512 26.061 11.9455 22.5201 15.4864C19.2204 18.7865 14.0125 19.0076 10.4519 16.1573L10.414 16.1969C9.98191 16.6443 9.82096 17.1909 10.0569 17.4184C10.2917 17.646 10.132 18.193 9.69864 18.6396L3.66536 24.8783C3.23248 25.3245 2.51924 25.3378 2.07138 24.9045L0.378164 23.2662C-0.0679855 22.834 -0.0800743 22.1212 0.351982 21.6722ZM11.69 13.4938C14.1267 15.9309 18.092 15.9309 20.5283 13.4946C22.965 11.0579 22.9647 7.09215 20.5283 4.65587C18.092 2.21915 14.1267 2.21952 11.6908 4.65624C9.25368 7.0926 9.25368 11.0575 11.69 13.4938Z" fill="#C6C6C6"/>
</svg>
