<svg width="354" height="71" viewBox="0 0 354 71" fill="none" xmlns="http://www.w3.org/2000/svg">
<g opacity="0.2">
<g opacity="0.2" filter="url(#filter0_d_446_1052)">
<path d="M138.838 -132.5C179.108 -132.5 217.728 -116.503 246.203 -88.0278C274.678 -59.5526 290.676 -20.9321 290.676 19.3378C290.676 59.6076 274.678 98.2282 246.203 126.703C217.728 155.178 179.108 171.176 138.838 171.176H5.97972C0.955256 171.176 -3.86421 169.183 -7.42206 165.635C-10.9799 162.088 -12.9858 157.274 -13 152.249L-13 19.3378C-13 -20.9321 2.99715 -59.5526 31.4722 -88.0278C59.9474 -116.503 98.5679 -132.5 138.838 -132.5Z" fill="white"/>
</g>
<g style="mix-blend-mode:soft-light">
<path d="M202.162 -70.0657C242.432 -70.0657 281.053 -54.0685 309.528 -25.5934C338.003 2.88168 354 41.5022 354 81.7721V214.684C354 219.717 352 224.545 348.441 228.104C344.882 231.664 340.054 233.663 335.02 233.663H202.162C161.885 233.663 123.258 217.663 94.7779 189.183C66.2978 160.703 50.2979 122.076 50.2979 81.7989C50.2979 41.5219 66.2978 2.89455 94.7779 -25.5856C123.258 -54.0657 161.885 -70.0657 202.162 -70.0657Z" fill="white"/>
</g>
<g style="mix-blend-mode:exclusion" opacity="0.2">
<path d="M78.6795 170.425C62.4413 147.807 52.756 121.148 50.6892 93.3817C48.6223 65.615 54.2539 37.8161 66.9645 13.0431C79.6751 -11.7299 98.9722 -32.5173 122.733 -47.0323C146.494 -61.5473 173.798 -69.2276 201.641 -69.2282H202.642C227.196 -69.2643 251.388 -63.3007 273.112 -51.8562C285.331 -28.7882 291.379 -2.95296 290.667 23.1417C289.956 49.2363 282.51 74.7039 269.053 97.072C255.595 119.44 236.583 137.949 213.862 150.802C191.141 163.654 165.483 170.414 139.379 170.425H78.6795Z" fill="#0A1C8F"/>
</g>
</g>
<defs>
<filter id="filter0_d_446_1052" x="-29" y="-136.5" width="335.676" height="335.676" filterUnits="userSpaceOnUse" color-interpolation-filters="sRGB">
<feFlood flood-opacity="0" result="BackgroundImageFix"/>
<feColorMatrix in="SourceAlpha" type="matrix" values="0 0 0 0 0 0 0 0 0 0 0 0 0 0 0 0 0 0 127 0" result="hardAlpha"/>
<feOffset dy="12"/>
<feGaussianBlur stdDeviation="8"/>
<feColorMatrix type="matrix" values="0 0 0 0 0.137255 0 0 0 0 0.0431373 0 0 0 0 0.627451 0 0 0 0.239 0"/>
<feBlend mode="normal" in2="BackgroundImageFix" result="effect1_dropShadow_446_1052"/>
<feBlend mode="normal" in="SourceGraphic" in2="effect1_dropShadow_446_1052" result="shape"/>
</filter>
</defs>
</svg>
